<svg width="21.000000" height="20.000000" viewBox="0 0 21 20" fill="none" xmlns="http://www.w3.org/2000/svg" xmlns:xlink="http://www.w3.org/1999/xlink">
	<desc>
			Created with Pixso.
	</desc>
	<defs>
		<clipPath id="clip1_14">
			<rect id="Frame" rx="0.000000" width="20.000000" height="19.000000" transform="translate(0.500000 0.500000)" fill="white" fill-opacity="0"/>
		</clipPath>
	</defs>
	<rect id="Frame" rx="0.000000" width="20.000000" height="19.000000" transform="translate(0.500000 0.500000)" fill="#FFFFFF" fill-opacity="0"/>
	<g clip-path="url(#clip1_14)">
		<path id="Vector" d="M18.21 14.13C18.21 15.38 17.85 16.38 17.13 17.07C16.4 17.75 15.39 18.12 14.18 18.12L5.96 18.12C4.75 18.12 3.74 17.75 3.01 17.07C2.29 16.34 1.92 15.33 1.92 14.08L1.92 5.82C1.92 4.61 5.19 0.7 5.91 -0.03C2.41 -0.03 0.07 2.31 0.07 5.82L0.07 14.08C0.07 15.82 0.63 17.31 1.76 18.4C2.85 19.45 4.3 19.97 5.96 19.97L14.18 19.97C15.92 19.97 17.37 19.41 18.42 18.4C19.51 17.35 20.07 15.86 20.07 14.12L20.07 5.82C20.07 4.12 19.51 2.67 18.46 1.62C17.41 0.53 15.91 -0.03 14.22 -0.03L5.91 -0.03L3.01 2.88C3.7 2.19 4.75 1.83 5.96 1.83L14.26 1.83C15.47 1.83 16.48 2.19 17.21 2.92C17.89 3.64 18.29 4.65 18.29 5.82L18.29 14.13L18.21 14.13ZM15.35 5.94C15.51 5.94 15.66 5.92 15.81 5.86C15.96 5.8 16.09 5.72 16.2 5.61C16.31 5.5 16.4 5.37 16.46 5.22C16.52 5.08 16.56 4.93 16.56 4.77C16.56 4.61 16.52 4.46 16.46 4.31C16.4 4.17 16.31 4.04 16.2 3.93C16.09 3.82 15.96 3.74 15.81 3.68C15.66 3.62 15.51 3.6 15.35 3.6C15.05 3.61 14.76 3.74 14.55 3.96C14.34 4.17 14.22 4.47 14.22 4.77C14.22 5.07 14.34 5.37 14.55 5.58C14.76 5.8 15.05 5.93 15.35 5.94ZM10.07 13.28C9.19 13.27 8.36 12.92 7.74 12.31C7.12 11.69 6.77 10.85 6.76 9.97C6.77 9.1 7.12 8.26 7.74 7.64C8.36 7.02 9.19 6.67 10.07 6.66C10.95 6.67 11.78 7.02 12.4 7.64C13.02 8.26 13.37 9.1 13.38 9.97C13.37 10.85 13.02 11.69 12.4 12.3C11.78 12.92 10.95 13.27 10.07 13.28L10.07 13.28ZM10.07 4.81C7.25 4.81 4.91 7.11 4.91 9.97C4.91 10.65 5.04 11.32 5.3 11.95C5.56 12.58 5.94 13.14 6.42 13.62C6.9 14.1 7.47 14.48 8.09 14.74C8.72 15 9.39 15.13 10.07 15.13C12.93 15.13 15.23 12.79 15.23 9.97C15.23 7.15 12.89 4.81 10.07 4.81Z" fill="#000000" fill-opacity="1.000000" fill-rule="nonzero"/>
	</g>
</svg>
