<svg width="40.000000" height="40.000000" viewBox="0 0 40 40" fill="none" xmlns="http://www.w3.org/2000/svg" xmlns:xlink="http://www.w3.org/1999/xlink">
	<desc>
			Created with Pixso.
	</desc>
	<defs>
		<clipPath id="clip1_10">
			<rect id="Frame" rx="0.000000" width="39.000000" height="39.000000" transform="translate(0.500000 0.500000)" fill="white" fill-opacity="0"/>
		</clipPath>
	</defs>
	<rect id="Frame" rx="0.000000" width="39.000000" height="39.000000" transform="translate(0.500000 0.500000)" fill="#FFFFFF" fill-opacity="0"/>
	<g clip-path="url(#clip1_10)">
		<path id="Vector" d="M24.87 24.88L29.96 29.97" stroke="#000000" stroke-opacity="1.000000" stroke-width="2.000000"/>
		<path id="Vector" d="M24.87 24.88C23.33 26.42 21.25 27.28 19.07 27.28C16.9 27.28 14.81 26.42 13.27 24.88C11.74 23.34 10.87 21.26 10.87 19.08C10.87 16.91 11.74 14.82 13.27 13.29C14.81 11.75 16.9 10.89 19.07 10.89C21.25 10.89 23.33 11.75 24.87 13.29C26.4 14.82 27.27 16.91 27.27 19.08C27.27 21.26 26.4 23.34 24.87 24.88Z" stroke="#000000" stroke-opacity="1.000000" stroke-width="2.000000"/>
	</g>
</svg>
